<?xml version="1.0" encoding="UTF-8" standalone="no"?><!DOCTYPE svg PUBLIC "-//W3C//DTD SVG 1.1//EN" "http://www.w3.org/Graphics/SVG/1.1/DTD/svg11.dtd"><svg width="100%" height="100%" viewBox="0 0 900 600" version="1.1" xmlns="http://www.w3.org/2000/svg" xmlns:xlink="http://www.w3.org/1999/xlink" xml:space="preserve" xmlns:serif="http://www.serif.com/" style="fill-rule:evenodd;clip-rule:evenodd;stroke-linejoin:round;stroke-miterlimit:2;"><path d="M321.301,296.371c1.95,-150.111 124.414,-271.371 274.976,-271.371c64.9,0 124.579,22.53 171.634,60.189l-57.033,43.347c-32.788,-21.969 -72.209,-34.786 -114.601,-34.786c-113.832,0 -206.25,92.418 -206.25,206.25c0,113.832 92.418,206.25 206.25,206.25c42.392,0 81.813,-12.817 114.601,-34.786l57.033,43.347c-47.055,37.659 -106.734,60.189 -171.634,60.189c-145.994,0 -265.569,-114.013 -274.467,-257.76l-32.259,-0l-48.272,84.632c-0.334,0.586 -1.055,0.961 -1.847,0.961c-0.793,0 -1.514,-0.375 -1.848,-0.961l-58.958,-103.368c-0.092,-0.163 -0.151,-0.334 -0.176,-0.507l-32.477,-56.941l-35.274,61.844c-0.335,0.586 -1.055,0.961 -1.848,0.961l-21.836,0c-0.371,0 -0.728,-0.082 -1.038,-0.232l-57.866,0c-2.772,0 -5.022,-2.337 -5.022,-5.217l-0,-10.434c-0,-2.88 2.25,-5.218 5.022,-5.218l67.743,0l48.271,-84.632c0.335,-0.586 1.055,-0.961 1.848,-0.961c0.792,-0 1.513,0.375 1.847,0.961l58.958,103.368c0.093,0.163 0.151,0.334 0.176,0.507l32.478,56.941l35.273,-61.844c0.335,-0.586 1.056,-0.961 1.848,-0.961l21.836,-0c0.371,-0 0.729,0.082 1.038,0.232l21.874,-0Zm523.61,16.629c17.662,0 32,14.339 32,32c0,17.661 -14.338,32 -32,32c-17.661,-0 -32,-14.339 -32,-32c0,-17.661 14.339,-32 32,-32Zm-124,-49c19.869,0 36,16.131 36,36c0,19.869 -16.131,36 -36,36c-19.869,0 -36,-16.131 -36,-36c0,-19.869 16.131,-36 36,-36Zm92,-58c16.006,-0 29,12.994 29,29c0,16.006 -12.994,29 -29,29c-16.005,-0 -29,-12.994 -29,-29c0,-16.006 12.995,-29 29,-29Z" style="fill:#fff;"/></svg>